<?xml version="1.0" encoding="UTF-8" standalone="no"?>
<!-- Created with Inkscape (http://www.inkscape.org/) -->

<svg
   xmlns:dc="http://purl.org/dc/elements/1.1/"
   xmlns:cc="http://creativecommons.org/ns#"
   xmlns:rdf="http://www.w3.org/1999/02/22-rdf-syntax-ns#"
   xmlns:svg="http://www.w3.org/2000/svg"
   xmlns="http://www.w3.org/2000/svg"
   xmlns:sodipodi="http://sodipodi.sourceforge.net/DTD/sodipodi-0.dtd"
   xmlns:inkscape="http://www.inkscape.org/namespaces/inkscape"
   width="64px"
   height="64px"
   viewBox="0 0 64 64"
   version="1.1"
   id="SVGRoot"
   inkscape:version="0.92.5 (2060ec1f9f, 2020-04-08)"
   sodipodi:docname="appIcon.svg">
  <defs
     id="defs921" />
  <sodipodi:namedview
     id="base"
     pagecolor="#ffffff"
     bordercolor="#666666"
     borderopacity="1.0"
     inkscape:pageopacity="0.0"
     inkscape:pageshadow="2"
     inkscape:zoom="5.6568542"
     inkscape:cx="39.754208"
     inkscape:cy="40.029846"
     inkscape:document-units="px"
     inkscape:current-layer="layer1"
     showgrid="false"
     inkscape:window-width="1920"
     inkscape:window-height="1001"
     inkscape:window-x="-9"
     inkscape:window-y="-9"
     inkscape:window-maximized="1"
     inkscape:grid-bbox="true"
     showguides="true"
     inkscape:guide-bbox="true">
    <sodipodi:guide
       position="112.51837,54.270445"
       orientation="1,0"
       inkscape:locked="false"
       id="guide1534" />
  </sodipodi:namedview>
  <metadata
     id="metadata924">
    <rdf:RDF>
      <cc:Work
         rdf:about="">
        <dc:format>image/svg+xml</dc:format>
        <dc:type
           rdf:resource="http://purl.org/dc/dcmitype/StillImage" />
        <dc:title></dc:title>
      </cc:Work>
    </rdf:RDF>
  </metadata>
  <g
     inkscape:label="Layer 1"
     inkscape:groupmode="layer"
     id="layer1">
    <g
       id="g1539"
       transform="translate(0.01319167,0.24274361)">
      <path
         sodipodi:nodetypes="ccccscccssccscscccccccccssccsccscccccccccscsccccccccscccccccccccscscccscccccscccccccccccccccssccscccccccccscsccssccccscsccccssccccsscsccsscsscccscccscccccccccsccsccccsccsc"
         style="fill:#118ec4;fill-opacity:1;stroke-width:0.0369855"
         d="m 37.174843,48.892287 c -0.01308,-0.02116 -0.0065,-0.392607 0.0145,-0.82545 0.02107,-0.432836 0.06349,-1.377819 0.09432,-2.099962 0.03082,-0.722143 0.07276,-1.679141 0.09322,-2.126666 0.06689,-1.463517 0.144946,-3.242601 0.169572,-3.864985 0.0229,-0.578741 0.02025,-0.615036 -0.05134,-0.702725 l -0.07549,-0.09247 -2.092966,-0.01042 c -1.801889,-0.0089 -2.09297,-0.01791 -2.09297,-0.06421 0,-0.08112 1.149507,-2.31092 1.191325,-2.31092 0.01994,0 0.08044,0.03111 0.134445,0.06914 0.159067,0.112026 0.38305,0.216343 0.637078,0.296708 0.481103,0.1522 0.860537,0.193469 1.957616,0.212913 1.196056,0.0212 1.357561,0.04748 1.591694,0.259001 0.270294,0.244193 0.265089,0.190897 0.297329,3.045714 0.04247,3.761133 0.108731,5.79874 0.224073,6.891373 0.03524,0.333967 0.03375,0.408187 -0.0089,0.447246 -0.03773,0.03442 -1.640999,0.747621 -2.017075,0.897281 -0.02336,0.0092 -0.05318,-4.08e-4 -0.06626,-0.02156 z M 10.981631,45.68563 c 0.0118,-0.0589 0.05639,-0.340112 0.09912,-0.624898 0.213325,-1.422337 0.769317,-5.005314 0.811628,-5.230373 0.04781,-0.254296 0.04789,-0.432656 3.7e-4,-0.521688 -0.06216,-0.116143 -0.279405,-0.146706 -1.044403,-0.146923 -0.678692,-3.71e-4 -0.73048,-0.0051 -0.73048,-0.06678 0,-0.03661 0.01458,-0.0824 0.03239,-0.10171 0.01782,-0.01934 0.266695,-0.492833 0.55305,-1.052238 0.286362,-0.559407 0.544505,-1.049631 0.573653,-1.08939 0.05095,-0.0695 0.06102,-0.06495 0.260751,0.117593 0.231838,0.211887 0.476771,0.31995 0.863113,0.380802 0.676202,0.106511 0.811471,0.215616 0.936125,0.755058 0.04661,0.201659 0.100553,0.353734 0.125506,0.353734 0.02408,0 0.175974,-0.194766 0.337557,-0.432812 0.161586,-0.238045 0.332717,-0.479375 0.380296,-0.53629 l 0.08651,-0.103477 1.63332,5.91e-4 c 1.763166,6.29e-4 1.904688,0.01312 2.216223,0.195689 0.311378,0.182483 0.492215,0.454006 0.628731,0.944031 0.07507,0.26945 0.07971,0.379034 0.09255,2.189807 0.01266,1.784828 0.0087,1.928965 -0.05966,2.264411 -0.126127,0.617395 -0.364135,1.024436 -0.749503,1.281774 -0.274077,0.183018 -0.828652,0.367732 -1.942197,0.646877 -0.943016,0.236396 -1.306587,0.346705 -1.726737,0.523903 -0.165261,0.0697 -0.305143,0.126727 -0.310847,0.126727 -0.04461,0 0.164483,-0.84522 0.527048,-2.13043 l 0.05323,-0.18869 0.585108,-0.02572 c 1.210948,-0.05322 1.664229,-0.27097 1.746847,-0.839184 0.05379,-0.369882 0.141046,-1.351199 0.189119,-2.126768 0.0415,-0.669488 0.0401,-0.713557 -0.02682,-0.850202 -0.05529,-0.11291 -0.102621,-0.15362 -0.218523,-0.187972 -0.217823,-0.06457 -3.434162,-0.0676 -3.487262,-0.0034 -0.04803,0.05815 -0.108039,1.08959 -0.156575,2.690694 -0.04211,1.38873 -0.102461,2.470787 -0.141758,2.541002 -0.0312,0.05573 -1.990845,1.306733 -2.089976,1.334191 -0.05879,0.01628 -0.06571,0.0035 -0.04739,-0.08802 z m 32.978224,-0.208813 c 3.71e-4,-0.02542 0.129897,-0.537213 0.28821,-1.137304 l 0.287839,-1.091073 1.133066,-0.01849 c 1.077001,-0.01758 1.138232,-0.02233 1.237446,-0.09599 0.194562,-0.144472 0.201304,-0.216342 0.189332,-2.017751 -0.01071,-1.611407 -0.01297,-1.656107 -0.08843,-1.757824 -0.131316,-0.177 -0.240788,-0.192485 -1.376819,-0.194748 -0.983797,-0.0019 -1.046692,-0.006 -1.035591,-0.06799 0.01851,-0.103183 1.154165,-2.301169 1.18897,-2.301169 0.01708,0 0.166973,0.08374 0.333095,0.18611 0.360862,0.222353 0.601815,0.301399 1.295554,0.425011 0.831731,0.148198 1.033117,0.289272 1.127734,0.789974 0.0216,0.114274 0.06529,0.640505 0.09711,1.169396 0.03181,0.528892 0.08246,1.344608 0.112528,1.812701 0.103823,1.615786 0.06798,2.366469 -0.131682,2.757838 -0.322889,0.632908 -0.938134,0.874311 -2.821328,1.10701 -0.727905,0.08994 -1.22006,0.207306 -1.534099,0.365836 -0.249156,0.125772 -0.303489,0.138054 -0.302934,0.06846 z m 5.695398,-0.0014 c 0,-0.07156 0.477297,-2.17289 0.502997,-2.214478 0.01054,-0.01706 0.205421,-0.03126 0.433068,-0.03156 0.22765,-3.71e-4 0.438475,-0.0161 0.468498,-0.0351 0.04159,-0.0263 0.07379,-0.244334 0.13505,-0.914825 0.04425,-0.484162 0.125499,-1.369192 0.180549,-1.966727 0.08352,-0.906632 0.09177,-1.091693 0.04989,-1.118245 -0.02762,-0.0175 -0.243002,-0.03209 -0.47863,-0.03238 -0.23563,-3.7e-4 -0.438965,-0.01113 -0.451854,-0.02401 -0.02731,-0.02731 1.137529,-2.31843 1.187163,-2.334974 0.01836,-0.006 0.118375,0.04608 0.222267,0.115998 0.211147,0.142088 0.616513,0.287022 1.061216,0.379424 0.244315,0.05076 0.634301,0.06537 2.237622,0.08383 l 1.94174,0.02235 0.212713,0.104453 c 0.249792,0.122663 0.378023,0.306607 0.432279,0.620102 0.01905,0.110044 0.05324,0.765959 0.07598,1.457589 0.0416,1.2645 0.100907,2.190729 0.206046,3.217737 0.06248,0.610258 0.154659,1.363618 0.181064,1.479727 0.0092,0.04086 0.0029,0.09691 -0.01422,0.124593 -0.04803,0.07771 -2.086187,0.931795 -2.126764,0.891218 -0.03411,-0.03411 0.01905,-1.389749 0.08989,-2.292117 0.06036,-0.768855 0.143196,-2.189 0.165573,-2.838792 0.02616,-0.759316 0,-0.907455 -0.171739,-0.967271 -0.138681,-0.04834 -3.055667,-0.05616 -3.131003,-0.0084 -0.04899,0.03107 -0.09913,0.48812 -0.195263,1.780256 -0.08333,1.120101 -0.003,2.751699 0.17214,3.495129 0.02874,0.122054 0.05251,0.249705 0.05282,0.283676 6.29e-4,0.0722 -0.23059,0.131614 -0.97957,0.251646 -1.357981,0.217626 -1.683377,0.28656 -2.39481,0.507312 -0.04208,0.01305 -0.06471,4.07e-4 -0.06471,-0.03616 z M 21.302496,44.959 c 0.02316,-0.359455 0.04713,-0.841525 0.172571,-3.467389 0.106907,-2.237962 0.106629,-2.125457 0.0055,-2.227028 -0.0818,-0.08218 -0.107145,-0.0849 -0.896899,-0.0964 -0.646911,-0.0093 -0.812725,-0.0219 -0.812725,-0.06118 0,-0.07097 1.155538,-2.312561 1.192127,-2.312561 0.01681,0 0.117458,0.06921 0.223656,0.153794 0.258768,0.206117 0.711667,0.414715 1.117722,0.514815 0.453702,0.111845 0.52832,0.155174 0.620604,0.360366 0.06345,0.141074 0.08001,0.261901 0.08963,0.653867 0.05369,2.189512 0.154364,3.593739 0.382982,5.341689 0.06079,0.464724 0.0658,0.578945 0.02701,0.615768 -0.06721,0.06381 -1.988268,0.866366 -2.073774,0.866366 -0.06578,0 -0.06898,-0.02265 -0.0484,-0.342117 z M 7.0849422,42.698096 c 0,-0.04839 0.057709,-0.476968 0.1282436,-0.952375 0.2665582,-1.796645 0.3272144,-2.273913 0.3018423,-2.375011 -0.045433,-0.18102 -0.1853527,-0.209186 -1.0391594,-0.209186 -0.5501297,0 -0.7593899,-0.01179 -0.7593899,-0.04278 0,-0.05484 1.1026042,-2.215776 1.1635787,-2.280439 0.037433,-0.03969 0.096576,-0.01219 0.3226318,0.149991 0.3257498,0.233715 0.5278385,0.325834 0.9971955,0.454538 0.1902906,0.05218 0.3970841,0.120052 0.4595374,0.150819 0.257008,0.126625 0.3088689,0.3757 0.349543,1.678825 0.032626,1.045143 0.077458,1.6554 0.1644073,2.237622 0.040999,0.274492 0.041206,0.341749 0.00128,0.383519 -0.046526,0.04864 -1.9921383,0.892481 -2.0577322,0.892481 -0.017569,0 -0.031944,-0.0396 -0.031944,-0.088 z m 18.6406938,0.01426 c 0,-0.04057 0.09107,-0.693825 0.202383,-1.451681 0.11131,-0.757855 0.213306,-1.472296 0.226659,-1.587646 0.05598,-0.483498 -8.51e-4,-0.511489 -1.038117,-0.511489 -0.506164,0 -0.759392,-0.01296 -0.759392,-0.03888 0,-0.05265 1.144071,-2.285315 1.183548,-2.309719 0.01721,-0.01063 0.157533,0.07123 0.311825,0.181939 0.293986,0.210926 0.683551,0.381177 1.114855,0.487222 0.610455,0.150094 0.629721,0.199599 0.682408,1.753401 0.0351,1.035225 0.10936,2.01156 0.182112,2.394456 0.02027,0.106601 0.02857,0.215345 0.01846,0.241655 -0.01584,0.04129 -2.021555,0.916484 -2.09701,0.91503 -0.01526,-3.7e-4 -0.02773,-0.03373 -0.02773,-0.07429 z m 15.1646,-3.217175 c -0.247251,-0.347234 -0.406037,-0.890279 -0.538993,-1.843318 -0.07157,-0.512985 -0.08084,-0.655724 -0.04421,-0.679383 0.02551,-0.01647 0.312671,-0.02582 0.638144,-0.02077 l 0.591767,0.0091 -0.01367,0.110957 c -0.0075,0.06102 -0.01516,0.527042 -0.01696,1.035593 -0.0032,0.905943 -0.0014,0.93002 0.09259,1.190918 0.05273,0.146461 0.08669,0.275447 0.07551,0.286638 -0.0112,0.0112 -0.17456,0.02035 -0.363034,0.02035 -0.338008,0 -0.343747,-0.0016 -0.42114,-0.110187 z m 1.738317,0 c -0.197131,-0.276853 -0.389407,-0.84181 -0.478583,-1.40622 -0.115479,-0.730888 -0.14862,-1.088017 -0.103662,-1.117077 0.02498,-0.01615 0.311705,-0.02522 0.637176,-0.02017 l 0.591769,0.0091 -0.01349,0.110957 c -0.0073,0.06102 -0.01575,0.527044 -0.01849,1.035593 -0.0051,0.912615 -0.0039,0.9281 0.09237,1.190959 0.05356,0.146473 0.08824,0.275461 0.07704,0.286638 -0.01117,0.01117 -0.174522,0.02031 -0.362997,0.02031 -0.338007,0 -0.343747,-0.0016 -0.42114,-0.110187 z"
         id="path892"
         inkscape:connector-curvature="0" />
      <g
         transform="matrix(0.06441921,0,0,0.06441921,69.860655,18.293479)"
         id="g885"
         style="fill:#ffd42a">
        <path
           inkscape:connector-curvature="0"
           id="path888"
           d="m -954.3466,188.03109 c 0,-0.23601 2.5875,-0.93574 5.75,-1.55497 34.6334,-6.78128 57.3073,-12.54617 110.25,-28.03122 94.527,-27.64793 141.4629,-32.86184 183.5298,-20.38751 4.9336,1.46299 10.0952,2.89258 11.4702,3.17686 2.4298,0.50237 2.4503,0.46084 0.7302,-1.47924 -2.0305,-2.29005 -12.6587,-7.66823 -20.7302,-10.49005 -13.5514,-4.73762 -22.6374,-6.01679 -46.3753,-6.52898 -40.386,-0.87141 -66.0828,2.63746 -141.6247,19.33871 -32.2875,7.13829 -63.5385,13.63729 -76.4271,15.89385 -7.1368,1.24953 -0.4703,-0.95088 15.0582,-4.97025 9.2779,-2.40147 32.1689,-8.72082 50.8689,-14.043 72.8382,-20.73039 104.8238,-27.65046 140.8952,-30.48263 34.8698,-2.73782 58.7708,0.5993 83.1048,11.60329 5.5,2.48714 10.6239,4.78777 11.3864,5.11251 2.9938,1.27494 0.2753,-2.37066 -4.431,-5.9421 -10.3984,-7.89093 -27.4997,-14.61859 -46.9554,-18.4723 -13.0193,-2.5788 -62.1867,-2.56359 -81.5,0.0252 -32.6662,4.37867 -51.6094,8.11453 -107.7409,21.248 -48.184,11.27396 -66.032,14.94208 -85.1179,17.49345 -16.8881,2.2576 -16.1412,2.22025 -16.1412,0.80734 0,-1.07092 57.2052,-90.30775 60.5073,-94.38786 2.6514,-3.27618 -2.7056,5.9407 -27.2237,46.83926 -12.806,21.36159 -23.2836,39.44754 -23.2836,40.19098 0,0.74345 0.3574,1.5726 0.7942,1.84256 2.3914,1.47801 42.4896,-7.72811 87.2058,-20.02151 80.3154,-22.0804 121.0356,-29.33881 164.5,-29.32226 43.5107,0.0166 71.1199,8.36536 95.3022,28.8186 4.5321,3.83319 7.7933,7.41604 16.789,18.44492 0.8041,0.9859 1.9001,1.52184 2.4354,1.19098 0.5747,-0.35514 0.9734,-8.21317 0.9734,-19.18302 0,-17.26757 -0.1591,-18.90014 -2.25,-23.08847 -5.3171,-10.65083 -22.4433,-25.11763 -38.1844,-32.25495 -16.2478,-7.36712 -37.3809,-10.91214 -65.2097,-10.93877 -37.9426,-0.0363 -69.8281,4.62402 -144.2009,21.07613 -15.0397,3.32696 -27.5225,5.87139 -27.7396,5.65428 -0.2171,-0.2171 0.1631,-1.12607 0.8449,-2.01994 1.8685,-2.44955 66.8856,-16.57736 102.2375,-22.21555 69.3171,-11.05522 115.5168,-7.56006 146.6508,11.09464 4.4907,2.69066 11.9327,8.44126 16.5378,12.77909 4.6051,4.33783 8.6774,7.58257 9.0494,7.21052 1.0901,-1.09012 -2.8488,-7.54539 -8.144,-13.34669 -32.2167,-35.29609 -90.6005,-40.66767 -199.5918,-18.36336 -17.3949,3.55974 -56.7921,12.03231 -59.25,12.74203 -1.8835,0.54385 -2.5208,-2.03505 -0.7703,-3.11693 1.7352,-1.07239 53.6497,-12.17651 79.5216,-17.00905 34.9327,-6.525 62.1382,-9.49477 87.0285,-9.50007 43.7172,-0.009 73.0727,9.56208 94.2366,30.72595 6.5941,6.59408 8.4976,7.35543 6.3127,2.52486 -6.405,-14.16055 -28.8558,-30.10914 -50.2476,-35.69488 -15.9654,-4.16884 -24.049,-5.01444 -47.8315,-5.0035 -37.5294,0.0173 -69.5603,4.72643 -145.4449,21.38324 -7.6696,1.6835 -15.0785,3.06091 -16.4642,3.06091 -2.3264,0 -2.3949,-0.12461 -0.8933,-1.62616 3.3633,-3.36332 81.7008,-19.10175 119.8024,-24.06897 19.4203,-2.53178 66.5303,-2.5257 80,0.0103 22.0154,4.14499 39.0455,12.33321 53.1794,25.56912 4.3369,4.06137 8.1271,7.14248 8.4227,6.8469 1.3402,-1.34013 -4.5423,-9.89811 -11.5004,-16.73119 -12.5521,-12.32643 -27.6757,-19.5314 -49.6017,-23.63049 -15.045,-2.81268 -56.7073,-2.58711 -79.6831,0.43142 -20.6531,2.71337 -47.0977,7.5311 -81.1811,14.78972 -31.3153,6.66911 -33.6358,7.0499 -33.6358,5.51958 0,-1.82652 3.2971,-2.83501 23,-7.03497 69.511,-14.81733 100.8606,-19.32265 135.5,-19.47303 44.136,-0.19161 68.3615,7.4234 89.75,28.21198 5.9906,5.82259 7.75,7.0709 7.75,5.49875 0,-4.06451 -8.1378,-14.22924 -17.3078,-21.61875 -17.3893,-14.01297 -39.4113,-19.79402 -75.6922,-19.87017 -30.7674,-0.0646 -60.4284,3.72857 -111,14.19506 -13.475,2.78884 -29.1209,6.01708 -34.7686,7.17386 -5.6477,1.15679 -10.5709,1.80089 -10.9405,1.43134 -1.4615,-1.46151 2.5926,-3.42299 10.2091,-4.93946 4.4,-0.87606 18.8,-3.83731 32,-6.58057 27.086,-5.62908 53.3429,-10.15305 74,-12.7499204 20.1099,-2.52808001 60.1994,-2.51739001 73.9434,0.0197 23.8191,4.3969704 40.2345,12.6069604 53.9607,26.9878704 5.6883,5.9596 7.1363,4.9423 3.0034,-2.11003 -14.3431,-24.47464 -47.746,-36.5732204 -96.4075,-34.9189204 -32.1111,1.09165 -55.2618,4.6173 -125.875,19.1696204 -9.5563,1.9694 -17.5994,3.35638 -17.8736,3.08219 -1.6583,-1.65832 1.5011,-3.38274 8.8915,-4.85306 4.5964,-0.91444 19.3821,-3.91232 32.8571,-6.66195 56.4581,-11.5205404 81.3189,-14.49995 115,-13.78202 18.9185,0.40326 25.4143,0.9182 33.3194,2.6412996 19.5503,4.26144 32.057,10.6326004 44.8332,22.8389204 5.1067,4.87895 7.8474,6.90421 7.8474,5.79895 0,-4.33591 -8.3255,-15.12642 -16.3838,-21.2347604 -18.5101,-14.0309196 -41.317,-19.1246496 -80.6162,-18.0049996 -30.2883,0.86292 -49.2423,3.57457 -109.4227,15.6544496 -16.4575,3.30346999 -30.0806,5.8484404 -30.2736,5.6554804 -0.5523,-0.5523304 0.8295,-3.6370904 1.6293,-3.6370904 0.3954,0 14.0555,-2.68835 30.3558,-5.97412 35.1724,-7.0899696 48.4408,-9.4561596 67.2112,-11.9858996 68.1461,-9.18429 109.8931,-1.61706 132.9108,24.09195 4.794,5.35452 5.7614,3.79251 1.9679,-3.1773904 -5.3925,-9.90776 -19.2634,-20.5965196 -32.8905,-25.3449896 -13.8653,-4.83149 -20.7527,-5.80443 -44.7979,-6.32834 -32.97,-0.71836 -54.8111,1.85441 -112.8085,13.28829 -17.9399,3.53678 -33.8989,6.4305 -35.4643,6.4305 -17.3995,0 58.9026,-16.01216 102.5825,-21.52714 17.5571,-2.21675 49.0302,-3.00117 62.3161,-1.55314 24.3704,2.65615 41.3342,9.2735 53.9313,21.03782 4.1476,3.8733496 7.8136,7.0424596 8.1468,7.0424596 1.8282,0 0.062,-4.5188596 -3.8359,-9.8135496 -16.1991,-22.00502 -50.8341,-30.61602 -103.5583,-25.74683 -21.2016,1.95801 -38.9705,4.65445 -69.5459,10.55359 -38.7587,7.478 -44.3637,8.43059 -45.1251,7.66914 -1.7928,-1.79274 3.47,-3.29819 28.8493,-8.25257 57.5009,-11.22494 82.1394,-14.41294 111.3203,-14.40388 36.9004,0.0114 59.1211,6.28774 75.0648,21.20228 6.6049,6.17856 7.4366,6.65633 7.4366,4.27195 0,-4.26948 -9.3382,-14.92183 -17.8936,-20.41185 -13.4736,-8.64596 -27.8766,-12.00962 -54.6064,-12.75269 -21.2225,-0.58996 -35.3128,0.31402 -59,3.78519 -13.4884,1.97663 -22.4304,3.56503 -64.3377,11.42869 -10.6357,1.99573 -19.5787,3.38744 -19.8735,3.09269 -1.0483,-1.04835 0.6776,-3.62218 2.4298,-3.62342 0.9798,-6.9e-4 14.6064,-2.44821 30.2814,-5.43892 43.7016,-8.33805 59.986,-10.76943 84.5,-12.61647 54.0503,-4.07249 89.162,7.79841 101.9974,34.48424 2.0032,4.16483 4.0293,7.57241 4.5026,7.57241 0.4732,0 2.4994,-3.40758 4.5026,-7.57241 12.8354,-26.68583 47.9471,-38.55673 101.9974,-34.48424 24.514,1.84704 40.7984,4.27842 84.5,12.61647 15.675,2.99071 29.3016,5.43823 30.2814,5.43892 1.7522,10e-4 3.4781,2.57507 2.4298,3.62342 -0.2948,0.29475 -9.2379,-1.09696 -19.8736,-3.09269 -41.9073,-7.86366 -50.8492,-9.45206 -64.3376,-11.42869 -23.6872,-3.47117 -37.7776,-4.37515 -59,-3.78519 -22.1899,0.61686 -31.8678,2.26973 -44.6761,7.6301 -12.1175,5.07127 -23.3881,14.75959 -26.8263,23.05997 -0.6967,1.68216 -0.9996,3.32571 -0.673,3.65233 0.3267,0.32662 3.5612,-2.12513 7.1879,-5.44833 16.5045,-15.12341 37.9676,-21.19228 74.9888,-21.20376 29.181,-0.009 53.8194,3.17894 111.3204,14.40388 25.3793,4.95438 30.642,6.45983 28.8493,8.25257 -0.7615,0.76145 -6.3665,-0.19114 -45.1251,-7.66914 -30.5754,-5.89914 -48.3443,-8.59558 -69.5459,-10.55359 -52.7242,-4.86919 -87.3592,3.74181 -103.5584,25.74683 -3.8977,5.29469 -5.664,9.8135496 -3.8358,9.8135496 0.3331,0 3.9221,-3.09713 7.9755,-6.8825196 17.6875,-16.51818 42.8969,-23.02809 84.4187,-21.79974 28.6683,0.84811 52.8536,4.27662 106.9682,15.16388 24.4785,4.92479 32.086,7.19698 29.3778,8.77449 -0.4653,0.27102 -15.246,-2.36082 -32.846,-5.84852 -61.6216,-12.21123 -82.9458,-14.79472 -116.5,-14.11431 -24.7366,0.50161 -31.4662,1.43036 -45.3061,6.25261 -13.985,4.87286 -27.5806,15.3178896 -33.0727,25.4086496 -3.9229,7.2077504 -2.741,8.4824904 2.492,2.6877204 22.8158,-25.26515 64.6753,-32.72799 132.3868,-23.60228 18.7703,2.52974 32.0388,4.89593 67.2112,11.9858996 16.3002,3.28577 29.9603,5.97412 30.3558,5.97412 0.8035,0 2.1804,3.08598 1.6248,3.6415704 -0.1955,0.19542 -14.7775,-2.54919041 -32.4046,-6.0991304 -57.6837,-11.6169896 -77.2474,-14.3933096 -107.2927,-15.2260696 -39.3555,-1.0908 -62.1149,3.99574 -80.6107,18.0158096 -8.0583,6.1083404 -16.3838,16.8988504 -16.3838,21.2347604 0,1.10526 2.7407,-0.92 7.8474,-5.79895 12.7799,-12.20983 25.2975,-18.5852604 44.8332,-22.8342804 12.4831,-2.7150896 49.016,-3.7959096 67.0382,-1.9833196 24.9597,2.5103196 54.7835,7.4055796 88.7812,14.57253 9.35,1.97104 20.7607,4.32345 25.3571,5.22758 7.3951,1.45466 10.5537,3.172 8.8914,4.8343 -0.2742,0.27419 -8.3173,-1.11425 -17.8735,-3.08542 -100.4039,-20.7103904 -138.748,-23.9666 -175.6142,-14.9133104 -17.2069,4.22549999 -30.7304,11.5811204 -39.7631,21.6276504 -9.5658,10.63951 -13.1265,20.81279 -3.9019,11.14822 18.4324,-19.31154 41.5607,-27.7772904 79.4042,-29.06469041 32.2402,-1.09677999 65.9091,3.02284041 124.8156,15.27206041 11.9264,2.48002 25.2844,5.22123 29.6844,6.0916 7.5965,1.50267 11.683,3.48942 10.209,4.96339 -0.3695,0.36955 -5.2927,-0.27455 -10.9404,-1.43134 -5.6477,-1.15678 -21.2936,-4.37796 -34.7686,-7.15817 -51.0679,-10.53649 -80.2095,-14.27327 -111,-14.2333 -35.99,0.0467 -58.3601,5.92581 -75.6922,19.89272 -8.9739,7.23142 -17.3078,17.68577 -17.3078,21.71134 0,1.44073 1.9983,-9.7e-4 7.75,-5.59134 21.2748,-20.67804 45.3773,-28.30108 89.25,-28.22758 35.588,0.0596 65.2399,4.40311 142.5,20.87372 13.2702,2.82901 16.5,3.93493 16.5,5.64988 0,1.53032 -2.3205,1.14953 -33.6358,-5.51958 -34.0835,-7.25862 -60.5281,-12.07635 -81.1811,-14.78972 -22.9758,-3.01853 -64.6381,-3.2441 -79.6831,-0.43142 -21.8488,4.08466 -36.8353,11.23082 -49.5565,23.63049 -6.9913,6.81453 -12.8999,15.37697 -11.5456,16.73122 0.2955,0.29558 4.0858,-2.78553 8.4227,-6.8469 14.1338,-13.23591 31.1639,-21.42413 53.1794,-25.56912 11.9269,-2.24557 60.8194,-2.56761 76,-0.50058 46.3764,6.3147 120.1918,20.94864 123.7833,24.54009 1.527,1.52705 1.4642,1.64529 -0.8742,1.64529 -1.3857,0 -8.7946,-1.37741 -16.4643,-3.06091 -76.221,-16.73066 -107.6661,-21.35264 -145.4448,-21.3783 -23.7367,-0.0161 -31.862,0.82916 -47.692,4.96142 -17.2818,4.51122 -36.2576,16.16652 -44.987,27.63182 -8.8497,11.6233 -8.345,14.48339 0.9613,5.44786 33.4248,-32.45229 87.2106,-38.71064 181.2164,-21.08582 27.924,5.23537 77.7304,15.88945 79.5562,17.01784 1.7249,1.0661 1.0574,3.63331 -0.8049,3.09556 -2.7633,-0.7979 -43.0329,-9.42802 -61.75,-13.23355 -73.3591,-14.91531 -124.5185,-16.79379 -158.173,-5.80785 -14.36,4.68754 -28.46,13.51029 -38.0832,23.82956 -5.9625,6.39386 -10.1512,13.00827 -8.9797,14.17986 0.3721,0.37205 4.4443,-2.87269 9.0495,-7.21052 36.5624,-34.44014 95.3847,-38.96904 206.1864,-15.8749 42.3433,8.82552 57.9733,12.5795 59.2397,14.22811 0.6818,0.8876 1.0668,1.78662 0.8556,1.99782 -0.2112,0.2112 -9.769,-1.69974 -21.2396,-4.24653 -78.1263,-17.34616 -111.9738,-22.432 -149.5545,-22.47171 -28.3713,-0.03 -50.0707,3.5483 -66.39,10.94783 -15.7182,7.12696 -32.8475,21.60045 -38.1612,32.24445 -2.0917,4.18987 -2.25,5.81872 -2.25,23.14749 0,21.99116 0.4359,22.61756 8.3899,12.05653 12.6234,-16.76075 34.128,-30.07725 58.8886,-36.46614 13.6959,-3.53391 27.2091,-4.91289 48.2215,-4.92089 43.5907,-0.0166 83.951,7.17767 164.5,29.32226 44.7161,12.2934 84.8144,21.49952 87.2058,20.02151 1.064,-0.6576 1.0106,-3.73905 -0.085,-4.9228 -0.7938,-0.8574 -44.5861,-74.03643 -49.3403,-82.45 -1.8154,-3.21281 -1.8226,-3.31136 -0.088,-1.20102 3.3267,4.04659 60.3075,92.95596 60.3075,94.10021 0,1.40008 0.7352,1.43737 -16.1413,-0.81864 -19.0858,-2.55137 -36.9338,-6.21949 -85.1179,-17.49345 -56.1606,-13.14031 -75.1663,-16.88773 -107.7408,-21.24368 -19.4325,-2.59857 -68.5554,-2.62387 -81.5,-0.042 -19.5286,3.8951 -36.5702,10.60377 -46.9554,18.48472 -4.7063,3.57144 -7.4249,7.21704 -4.4311,5.9421 0.7626,-0.32474 5.8865,-2.62537 11.3865,-5.11251 25.4266,-11.4981 49.2316,-14.53063 87.5,-11.14668 35.1834,3.11115 65.1312,9.69729 136.4423,30.00648 18.6682,5.31666 41.5592,11.63815 50.8688,14.04775 15.5778,4.03197 22.261,6.23601 15.116,4.98504 -12.8886,-2.25656 -44.1397,-8.75556 -76.4271,-15.89385 -75.568,-16.707 -100.893,-20.18089 -141,-19.34133 -18.9643,0.39698 -25.3042,0.89843 -32.8478,2.59806 -14.023,3.15954 -33.3005,11.32361 -35.6272,15.08825 -0.9693,1.5684 0.2715,1.34087 13.584,-2.49086 12.9911,-3.73923 32.0908,-6.48307 44.8848,-6.4481 9.2737,0.0254 33.1297,2.32106 46.5062,4.47537 22.7128,3.65797 50.2997,10.43827 91.5,22.48882 52.4286,15.3347 73.4547,20.68192 110.5,28.10164 9.7344,1.94968 4.458,2.22074 -8.763,0.45018 -28.4795,-3.81399 -43.0242,-6.64238 -108.237,-21.04811 -65.6927,-14.51172 -64.7629,-14.31821 -79.6288,-16.57226 -49.525,-7.50923 -90.9587,-0.50221 -124.52,21.05808 -1.936,1.24376 -2.9752,0.96668 -10.5,-2.79969 -11.467,-5.73962 -19.1391,-7.56081 -31.8512,-7.56081 -12.7122,0 -20.3843,1.82119 -31.8513,7.56081 -7.5247,3.76637 -8.5639,4.04345 -10.5,2.79969 -27.3602,-17.5766 -56.9895,-24.99743 -94.5179,-23.6726 -16.9119,0.59703 -35.6422,2.9723 -53.002,6.72141 -5.2959,1.14372 -30.7788,6.75547 -56.6288,12.47057 -64.4749,14.25456 -76.4598,16.60601 -104.5595,20.51465 -14.6069,2.03184 -17.9405,2.3222 -17.9405,1.56266 z"
           style="fill:#705d4e;fill-opacity:1"
           sodipodi:nodetypes="scssccssssssssccssscsccscsscccsscssccscsccsccscsccscscsccccsssssscscsscccsscccssccssscscsscssscccscssscscsscscsscsssccsscscssccssssccccscsscscsscssccsssscsscscsssccsccssssccsscssscssssccccscscsssssccsccccscsssscscsssccccscsssscsssccssccsccsssssccsscscscs" />
      </g>
    </g>
  </g>
</svg>
