<?xml version="1.0" encoding="UTF-8" standalone="no"?>
<!-- Created with Inkscape (http://www.inkscape.org/) -->

<svg
   xmlns:dc="http://purl.org/dc/elements/1.1/"
   xmlns:cc="http://creativecommons.org/ns#"
   xmlns:rdf="http://www.w3.org/1999/02/22-rdf-syntax-ns#"
   xmlns:svg="http://www.w3.org/2000/svg"
   xmlns="http://www.w3.org/2000/svg"
   xmlns:sodipodi="http://sodipodi.sourceforge.net/DTD/sodipodi-0.dtd"
   xmlns:inkscape="http://www.inkscape.org/namespaces/inkscape"
   width="64px"
   height="64px"
   viewBox="0 0 64 64"
   version="1.1"
   id="SVGRoot"
   inkscape:version="0.92.5 (2060ec1f9f, 2020-04-08)"
   sodipodi:docname="notification.svg">
  <defs
     id="defs881" />
  <sodipodi:namedview
     id="base"
     pagecolor="#ffffff"
     bordercolor="#666666"
     borderopacity="1.0"
     inkscape:pageopacity="0.0"
     inkscape:pageshadow="2"
     inkscape:zoom="5.6568542"
     inkscape:cx="-50.367687"
     inkscape:cy="6.4938306"
     inkscape:document-units="px"
     inkscape:current-layer="layer1"
     showgrid="false"
     inkscape:window-width="1920"
     inkscape:window-height="1001"
     inkscape:window-x="-9"
     inkscape:window-y="-9"
     inkscape:window-maximized="1"
     inkscape:grid-bbox="true" />
  <metadata
     id="metadata884">
    <rdf:RDF>
      <cc:Work
         rdf:about="">
        <dc:format>image/svg+xml</dc:format>
        <dc:type
           rdf:resource="http://purl.org/dc/dcmitype/StillImage" />
        <dc:title />
      </cc:Work>
    </rdf:RDF>
  </metadata>
  <g
     inkscape:label="Layer 1"
     inkscape:groupmode="layer"
     id="layer1">
    <path
       sodipodi:nodetypes="cscssccssssssssccssscsccscsscccsscscccscsccsccssscscssccccssscsccscsssccccccsscscscccsscscscccscccsssccccsscsssccscssssccsssscscsssccccscsssscsssccssccsccsssssccsscscscc"
       style="fill:#000000;fill-opacity:1;stroke-width:0.09477987"
       d="m 1.9858842,45.53065 c 0,-0.02607 0.2104561,-0.103342 0.4676947,-0.171735 2.8170335,-0.748941 4.661295,-1.385628 8.9675731,-3.095834 7.688697,-3.053501 11.5064,-3.629336 14.928059,-2.251644 0.401288,0.161577 0.821125,0.319463 0.932969,0.35086 0.19764,0.05548 0.199305,0.0509 0.0594,-0.163372 -0.165157,-0.252917 -1.02964,-0.846895 -1.686164,-1.158544 -1.102254,-0.523233 -1.841296,-0.664509 -3.772098,-0.721075 -3.284945,-0.09624 -5.375086,0.291286 -11.519556,2.135811 -2.6262173,0.788369 -5.1681318,1.506134 -6.2164668,1.755355 -0.5805015,0.138 -0.038241,-0.105014 1.2248077,-0.548927 0.7546504,-0.265224 2.6165757,-0.963148 4.1376,-1.550941 5.9245611,-2.289513 8.5262221,-3.053782 11.4602241,-3.366573 2.836259,-0.302371 4.780329,0.06619 6.759622,1.281494 0.447361,0.274686 0.864136,0.528773 0.926155,0.564638 0.243512,0.140808 0.02237,-0.261821 -0.360412,-0.65626 -0.845787,-0.871491 -2.236783,-1.61451 -3.819288,-2.040123 -1.058966,-0.284809 -5.058179,-0.283128 -6.629091,0.0028 -2.657019,0.483592 -4.197832,0.896188 -8.7634897,2.346679 -3.9192183,1.245122 -5.3709493,1.650237 -6.9233732,1.932017 -1.37365309,0.249335 -1.3129009,0.245208 -1.3129009,0.08917 0,-0.118275 4.6529878,-9.973797 4.9215773,-10.424414 0.2156589,-0.361829 -0.2200728,0.656104 -2.2143331,5.173037 -1.0416233,2.359224 -1.8938621,4.356678 -1.8938621,4.438784 0,0.08211 0.029049,0.173683 0.064602,0.203498 0.1945179,0.163235 3.4560414,-0.853511 7.0931947,-2.211223 6.532742,-2.43861 9.844864,-3.240245 13.380197,-3.238418 3.539105,0.0018 5.784794,0.923889 7.751748,3.182793 0.368632,0.423347 0.6339,0.819045 1.365597,2.0371 0.06538,0.108888 0.154552,0.168075 0.198091,0.131534 0.04674,-0.03921 0.07917,-0.907081 0.07917,-2.118616 0,-1.907071 -0.01292,-2.087376 -0.183011,-2.549946 -0.432481,-1.176301 -1.825506,-2.774048 -3.105862,-3.562311 -1.321573,-0.813641 -3.040515,-1.205161 -5.304067,-1.208102 -3.086196,-0.004 -5.679722,0.510687 -11.7291,2.327696 -1.223308,0.367437 -2.2386397,0.64845 -2.2562948,0.624472 0.1554926,-0.542085 0.4065695,-1.125307 0.6152738,-1.682721 0.1411366,-0.118436 4.363795,-1.344801 6.468175,-1.878519 2.841374,-0.720635 5.054233,-1.048623 7.078774,-1.049209 3.555902,-10e-4 5.943629,1.056059 7.665077,3.393446 0.536355,0.728264 0.691184,0.81235 0.513463,0.27885 -0.520972,-1.563923 -2.347093,-3.325322 -4.087072,-3.942226 -1.298601,-0.460416 -1.956106,-0.553805 -3.890541,-0.552597 -3.052595,0.0018 -5.65794,0.521998 -11.830288,2.361615 -0.623832,0.185929 -1.226465,0.338053 -1.339167,0.338053 l 0.399291,-1.42361 c 0,-0.201725 0.268183,-0.313105 1.870788,-0.776959 5.653925,-1.636459 8.20386,-2.134038 11.021379,-2.150646 3.589964,-0.02116 5.56043,0.819857 7.30014,3.115797 0.487266,0.643061 0.63037,0.780926 0.63037,0.607295 0,-0.448894 -0.661918,-1.571511 -1.407792,-2.387626 -1.414418,-1.547625 -3.205654,-2.186099 -6.156695,-2.194507 -2.502572,-0.0071 -4.915161,0.411791 -9.028585,1.567735 -1.096037,0.308006 -2.368651,0.664541 -2.828029,0.792296 -0.45937,0.12776 -0.859818,0.198896 -0.889881,0.158082 l 0.566159,-1.329747 c -0.134885,-0.18315 0.122093,-0.373599 0.723216,-0.535985 0.37387,-0.100987 1.576512,-0.432085 2.672549,-0.73576 4.592227,-1.272356 6.614367,-1.601409 9.353938,-1.522119 1.53881,0.04454 2.06717,0.10141 2.710158,0.291711 1.590197,0.470644 2.607471,1.17429 3.646666,2.522384 0.415371,0.538842 0.638296,0.762517 0.638296,0.640449 0,-0.478867 -0.677179,-1.670597 -1.332637,-2.345216 -1.50558,-1.549607 -3.360664,-2.11217 -6.557203,-1.988513 -2.463611,0.0953 -4.0053,0.394783 -8.900291,1.728913 -0.661279,0.235516 -2.469564,0.85288 -2.376682,0.569562 l 0.480484,-1.465627 c 0,0 4.884805,-1.643426 8.437672,-2.252516 1.428066,-0.24482 3.988044,-0.331455 5.068697,-0.171525 1.982259,0.293353 3.362069,1.024188 4.386696,2.323467 0.337363,0.427781 0.635549,0.777786 0.662655,0.777786 0.148698,0 0.0052,-0.499073 -0.312007,-1.083832 -4.051338,-4.540662 -9.608512,-2.843596 -14.080051,-1.677984 -3.152576,0.825889 -3.608486,0.931102 -3.670418,0.846999 l 0.763738,-1.729921 c 0.07969,-8.2e-5 1.188067,-0.270382 2.463048,-0.600683 3.554627,-0.920883 4.879173,-1.189405 6.873113,-1.393393 4.396374,-0.449774 7.252307,0.86127 8.296324,3.808512 0.162937,0.459978 0.327738,0.836321 0.366231,0.836321 0.0385,0 0.203301,-0.376343 0.366238,-0.836321 1.044017,-2.947242 3.89995,-4.258286 8.296324,-3.808512 1.993931,0.203988 3.318487,0.47251 6.873113,1.393393 1.274981,0.330301 2.383349,0.600601 2.463039,0.600683 l 0.763754,1.729921 c -0.06191,0.08407 -0.517842,-0.02108 -3.670409,-0.846999 -2.486963,-0.651512 -3.93226,-0.949306 -5.656769,-1.165561 -4.288509,-0.537762 -7.105673,0.413262 -8.423291,2.843545 -0.317028,0.584759 -0.460697,1.083832 -0.311999,1.083832 0.02706,0 0.319023,-0.342054 0.64872,-0.760123 1.438672,-1.824303 3.489175,-2.543282 6.866497,-2.40762 2.33184,0.09372 4.299036,0.472322 8.700639,1.674741 1.991044,0.543905 2.60983,0.794851 2.389549,0.969076 l 0.516159,1.367877 c -0.01586,0.02158 -1.201985,-0.281537 -2.635748,-0.673602 -4.691905,-1.283006 -6.283195,-1.589629 -8.727036,-1.681602 -3.201117,-0.12047 -5.052334,0.4413 -6.556751,1.989708 -0.626101,0.71847 -2.023981,3.187353 -0.694342,1.704767 1.0395,-1.348482 2.057658,-2.0526 3.646666,-2.521871 1.015358,-0.299861 3.986891,-0.419229 5.452791,-0.219043 2.030186,0.277246 4.456016,0.817891 7.221341,1.609425 0.760513,0.217685 1.688644,0.477492 2.062505,0.577345 0.601513,0.160657 0.723216,0.237037 0.723216,0.237037 l 0.566159,1.626545 c -0.03009,0.04081 -0.430502,-0.03032 -0.889881,-0.158081 -0.459371,-0.127757 -1.731992,-0.483511 -2.828029,-0.790564 -4.15379,-1.163674 -6.524122,-1.576373 -9.028576,-1.571959 -2.927378,0.0052 -4.746926,0.654461 -6.156696,2.196999 -0.729928,0.798654 -1.407793,1.953257 -1.407793,2.39785 0,0.159118 0.162539,-1.07e-4 0.630372,-0.61752 1.730466,-2.283731 3.690925,-3.125638 7.25947,-3.117519 2.894678,0.0066 5.30652,0.486288 11.590747,2.305342 1.079378,0.312442 1.342089,0.434582 1.342089,0.623986 l 0.3993,1.42357 c -0.112712,0 -0.715343,-0.152125 -1.339184,-0.338054 -6.199706,-1.847774 -8.757403,-2.358236 -11.83027,-2.36107 -1.930707,-0.0018 -2.591611,0.09158 -3.879199,0.547951 -1.405677,0.498229 -2.949144,1.785469 -3.659179,3.051724 -0.719827,1.283703 -0.678767,1.599579 0.07821,0.601673 2.718724,-3.584106 7.093585,-4.275294 14.739888,-2.328767 2.271295,0.578206 6.322476,1.754868 6.470983,1.87949 l 0.613365,1.679175 c 0,0 -0.794591,-0.187723 -1.727596,-0.468996 -6.354681,-1.91575 -9.107789,-2.477442 -12.164554,-2.481827 -2.30768,-0.0033 -4.072676,0.391881 -5.400067,1.209102 -1.278493,0.787118 -2.671761,2.385603 -3.103973,3.561152 -0.170133,0.46274 -0.18301,0.642634 -0.18301,2.556463 0,2.428755 0.03546,2.497935 0.682417,1.331551 1.02677,-1.851096 2.775922,-3.321802 4.789919,-4.027405 1.114004,-0.390294 2.213144,-0.54259 3.92227,-0.543475 3.5456,-0.0018 6.828447,0.792719 13.380197,3.238419 3.637145,1.357712 6.898677,2.374457 7.093195,2.211223 0.08654,-0.07263 0.0822,-0.412951 -0.0069,-0.543687 -0.06451,-0.09469 -3.626565,-8.176755 -4.013268,-9.105969 -0.147658,-0.35483 -0.148248,-0.365714 -0.0069,-0.132643 0.270583,0.446916 4.905327,10.266272 4.905327,10.392646 0,0.154628 0.05983,0.158746 -1.31291,-0.09042 -1.552416,-0.281779 -3.004147,-0.686895 -6.923374,-1.932018 -4.568024,-1.451246 -6.113918,-1.86512 -8.763481,-2.346201 -1.580614,-0.286992 -5.576202,-0.289786 -6.629098,-0.0046 -1.588428,0.430184 -2.974568,1.171105 -3.81928,2.041496 -0.38281,0.394437 -0.603932,0.797065 -0.36042,0.656258 0.062,-0.03586 0.478794,-0.289952 0.926162,-0.564637 2.068159,-1.269876 4.004425,-1.604796 7.11712,-1.231065 2.861769,0.343602 5.297684,1.070991 11.098026,3.313985 1.518441,0.587185 3.380366,1.285344 4.137601,1.551466 1.267072,0.4453 1.810676,0.68872 1.229508,0.55056 -1.048335,-0.24922 -3.590259,-0.966984 -6.216468,-1.755354 -6.146594,-1.84516 -8.206497,-2.228824 -11.46874,-2.136101 -1.54253,0.04384 -2.058212,0.09922 -2.671795,0.286935 -1.140609,0.348947 -2.708615,1.250605 -2.897869,1.666382 -0.07883,0.173218 0.02211,0.148088 1.104907,-0.275097 1.056677,-0.412969 2.610219,-0.716004 3.650864,-0.712142 0.754311,0.0028 2.694722,0.256342 3.782746,0.494269 1.847427,0.403995 4.091312,1.152827 7.442481,2.483719 4.264472,1.693599 5.974699,2.28416 8.987916,3.103609 0.791782,0.215327 0.362605,0.245265 -0.712768,0.04973 -2.316483,-0.421226 -3.499529,-0.733601 -8.803846,-2.324602 -5.343348,-1.602709 -5.267725,-1.581337 -6.476897,-1.83028 -4.028288,-0.829336 -7.398448,-0.05546 -10.128273,2.325704 -0.157473,0.137363 -0.242002,0.106768 -0.854059,-0.309205 -0.932711,-0.633895 -1.556743,-0.835034 -2.590735,-0.835034 -1.033992,0 -1.658025,0.201139 -2.590735,0.835034 -0.612048,0.415967 -0.696578,0.446568 -0.85406,0.309205 -2.225432,-1.941201 -4.635445,-2.760774 -7.687952,-2.614457 -1.375587,0.06593 -2.899083,0.328268 -4.311108,0.742328 -0.430753,0.126315 -2.503499,0.74609 -4.6061,1.377279 C 6.7058924,44.66671 5.7310566,44.92641 3.4454616,45.35809 2.25736,45.582491 1.9862125,45.614559 1.9862125,45.530673 Z"
       id="path888"
       inkscape:connector-curvature="0" />
  </g>
</svg>
